<mxfile host="localhost" modified="2020-05-19T08:33:51.199Z" agent="5.0 (Windows NT 10.0; Win64; x64) AppleWebKit/537.36 (KHTML, like Gecko) Code/1.45.1 Chrome/78.0.3904.130 Electron/7.2.4 Safari/537.36" etag="YaqBwK87V8bm8WvNuitJ" version="13.0.9">
    <diagram name="Page-1" id="74e2e168-ea6b-b213-b513-2b3c1d86103e">
        <mxGraphModel dx="1206" dy="792" grid="1" gridSize="10" guides="1" tooltips="1" connect="1" arrows="1" fold="1" page="1" pageScale="1" pageWidth="1100" pageHeight="850" background="#ffffff" math="0" shadow="0">
            <root>
                <mxCell id="0"/>
                <mxCell id="1" parent="0"/>
                <mxCell id="32o-j4kvodKn1qL3LOLl-8" style="edgeStyle=orthogonalEdgeStyle;rounded=0;orthogonalLoop=1;jettySize=auto;html=1;exitX=0.5;exitY=1;exitDx=0;exitDy=0;entryX=0.5;entryY=0;entryDx=0;entryDy=0;labelBackgroundColor=none;fontColor=#000000;strokeColor=#000000;verticalAlign=middle;" parent="1" source="32o-j4kvodKn1qL3LOLl-4" target="32o-j4kvodKn1qL3LOLl-6" edge="1">
                    <mxGeometry relative="1" as="geometry"/>
                </mxCell>
                <mxCell id="32o-j4kvodKn1qL3LOLl-4" value="提交新的任务队列" style="rounded=1;whiteSpace=wrap;html=1;fillColor=#d5e8d4;strokeColor=#000000;fontStyle=0;fontSize=14;fontColor=#000000;labelBackgroundColor=none;verticalAlign=middle;" parent="1" vertex="1">
                    <mxGeometry x="54.370000000000005" y="120" width="120" height="60" as="geometry"/>
                </mxCell>
                <mxCell id="32o-j4kvodKn1qL3LOLl-17" value="是" style="edgeStyle=orthogonalEdgeStyle;rounded=0;orthogonalLoop=1;jettySize=auto;html=1;labelBackgroundColor=none;fontColor=#000000;strokeColor=#000000;verticalAlign=bottom;" parent="1" source="32o-j4kvodKn1qL3LOLl-6" target="32o-j4kvodKn1qL3LOLl-11" edge="1">
                    <mxGeometry relative="1" as="geometry"/>
                </mxCell>
                <mxCell id="32o-j4kvodKn1qL3LOLl-33" value="否" style="edgeStyle=orthogonalEdgeStyle;rounded=0;orthogonalLoop=1;jettySize=auto;html=1;labelBackgroundColor=none;fontColor=#000000;strokeColor=#000000;verticalAlign=middle;" parent="1" source="32o-j4kvodKn1qL3LOLl-6" target="32o-j4kvodKn1qL3LOLl-13" edge="1">
                    <mxGeometry relative="1" as="geometry"/>
                </mxCell>
                <mxCell id="32o-j4kvodKn1qL3LOLl-6" value="&lt;div style=&quot;font-family: &amp;quot;consolas&amp;quot; , &amp;quot;courier new&amp;quot; , monospace ; font-size: 14px ; line-height: 19px&quot;&gt;corePoolSize&lt;br&gt;核心线程是否已满&lt;/div&gt;" style="rhombus;whiteSpace=wrap;html=1;fillColor=#f8cecc;strokeColor=#b85450;labelBackgroundColor=none;fontColor=#000000;" parent="1" vertex="1">
                    <mxGeometry x="30" y="250" width="168.75" height="90" as="geometry"/>
                </mxCell>
                <mxCell id="32o-j4kvodKn1qL3LOLl-23" value="否" style="edgeStyle=orthogonalEdgeStyle;rounded=0;orthogonalLoop=1;jettySize=auto;html=1;labelBackgroundColor=none;fontColor=#000000;strokeColor=#000000;verticalAlign=middle;" parent="1" source="32o-j4kvodKn1qL3LOLl-11" target="32o-j4kvodKn1qL3LOLl-22" edge="1">
                    <mxGeometry relative="1" as="geometry"/>
                </mxCell>
                <mxCell id="32o-j4kvodKn1qL3LOLl-35" value="是" style="edgeStyle=orthogonalEdgeStyle;rounded=0;orthogonalLoop=1;jettySize=auto;html=1;entryX=0;entryY=0.5;entryDx=0;entryDy=0;labelBackgroundColor=none;fontColor=#000000;strokeColor=#000000;verticalAlign=bottom;" parent="1" source="32o-j4kvodKn1qL3LOLl-11" edge="1">
                    <mxGeometry relative="1" as="geometry">
                        <mxPoint x="484.37" y="295" as="targetPoint"/>
                    </mxGeometry>
                </mxCell>
                <mxCell id="32o-j4kvodKn1qL3LOLl-11" value="&lt;div style=&quot;font-family: &amp;quot;consolas&amp;quot; , &amp;quot;courier new&amp;quot; , monospace ; font-size: 14px ; line-height: 19px&quot;&gt;工作队列是否已满&lt;/div&gt;" style="rhombus;whiteSpace=wrap;html=1;fillColor=#f8cecc;strokeColor=#000000;labelBackgroundColor=none;fontColor=#000000;verticalAlign=middle;" parent="1" vertex="1">
                    <mxGeometry x="264.37" y="250" width="150" height="90" as="geometry"/>
                </mxCell>
                <mxCell id="32o-j4kvodKn1qL3LOLl-13" value="&lt;span style=&quot;font-family: &amp;quot;helvetica neue&amp;quot;, helvetica, verdana, arial, sans-serif; font-size: 13px; text-align: left;&quot;&gt;创建一个新的核心线程来执行任务&lt;/span&gt;" style="rounded=1;whiteSpace=wrap;html=1;fillColor=#d5e8d4;strokeColor=#000000;labelBackgroundColor=none;labelBorderColor=none;fontStyle=0;fontSize=13;fontColor=#000000;verticalAlign=middle;" parent="1" vertex="1">
                    <mxGeometry x="54.379999999999995" y="410" width="120" height="60" as="geometry"/>
                </mxCell>
                <mxCell id="32o-j4kvodKn1qL3LOLl-22" value="放入工作队列" style="rounded=1;whiteSpace=wrap;html=1;strokeColor=#000000;fillColor=#d5e8d4;labelBackgroundColor=none;fontSize=15;fontStyle=0;fontColor=#000000;verticalAlign=middle;" parent="1" vertex="1">
                    <mxGeometry x="279.37" y="410" width="120" height="60" as="geometry"/>
                </mxCell>
                <mxCell id="32o-j4kvodKn1qL3LOLl-38" value="否" style="edgeStyle=orthogonalEdgeStyle;rounded=0;orthogonalLoop=1;jettySize=auto;html=1;labelBackgroundColor=none;fontColor=#000000;strokeColor=#000000;verticalAlign=middle;" parent="1" source="32o-j4kvodKn1qL3LOLl-36" target="32o-j4kvodKn1qL3LOLl-37" edge="1">
                    <mxGeometry relative="1" as="geometry"/>
                </mxCell>
                <mxCell id="32o-j4kvodKn1qL3LOLl-42" value="是" style="edgeStyle=orthogonalEdgeStyle;rounded=0;orthogonalLoop=1;jettySize=auto;html=1;fontSize=10;labelBackgroundColor=none;fontColor=#000000;strokeColor=#000000;verticalAlign=bottom;" parent="1" source="32o-j4kvodKn1qL3LOLl-36" target="32o-j4kvodKn1qL3LOLl-39" edge="1">
                    <mxGeometry relative="1" as="geometry"/>
                </mxCell>
                <mxCell id="32o-j4kvodKn1qL3LOLl-36" value="&lt;div style=&quot;font-family: &amp;quot;consolas&amp;quot; , &amp;quot;courier new&amp;quot; , monospace ; font-size: 14px ; line-height: 19px&quot;&gt;线程池是否已满&lt;/div&gt;" style="rhombus;whiteSpace=wrap;html=1;fillColor=#f8cecc;strokeColor=#000000;labelBackgroundColor=none;fontColor=#000000;verticalAlign=middle;" parent="1" vertex="1">
                    <mxGeometry x="484.37" y="250" width="150" height="90" as="geometry"/>
                </mxCell>
                <mxCell id="32o-j4kvodKn1qL3LOLl-37" value="创建新的线程来执行任务" style="rounded=1;whiteSpace=wrap;html=1;labelBackgroundColor=none;strokeColor=#000000;fillColor=#d5e8d4;fontSize=15;fontStyle=0;fontColor=#000000;verticalAlign=middle;" parent="1" vertex="1">
                    <mxGeometry x="499.37" y="410" width="120" height="60" as="geometry"/>
                </mxCell>
                <mxCell id="mkv4c0RFd3tloVC9sXqu-5" style="edgeStyle=orthogonalEdgeStyle;rounded=0;orthogonalLoop=1;jettySize=auto;html=1;entryX=0;entryY=0.5;entryDx=0;entryDy=0;labelBackgroundColor=none;fontColor=#000000;strokeColor=#000000;verticalAlign=middle;" parent="1" source="32o-j4kvodKn1qL3LOLl-39" target="mkv4c0RFd3tloVC9sXqu-1" edge="1">
                    <mxGeometry relative="1" as="geometry"/>
                </mxCell>
                <mxCell id="mkv4c0RFd3tloVC9sXqu-6" style="edgeStyle=orthogonalEdgeStyle;rounded=0;orthogonalLoop=1;jettySize=auto;html=1;entryX=0;entryY=0.5;entryDx=0;entryDy=0;labelBackgroundColor=none;fontColor=#000000;strokeColor=#000000;verticalAlign=middle;" parent="1" source="32o-j4kvodKn1qL3LOLl-39" target="mkv4c0RFd3tloVC9sXqu-2" edge="1">
                    <mxGeometry relative="1" as="geometry"/>
                </mxCell>
                <mxCell id="mkv4c0RFd3tloVC9sXqu-7" style="edgeStyle=orthogonalEdgeStyle;rounded=0;orthogonalLoop=1;jettySize=auto;html=1;entryX=0;entryY=0.5;entryDx=0;entryDy=0;labelBackgroundColor=none;fontColor=#000000;strokeColor=#000000;verticalAlign=middle;" parent="1" source="32o-j4kvodKn1qL3LOLl-39" target="mkv4c0RFd3tloVC9sXqu-3" edge="1">
                    <mxGeometry relative="1" as="geometry"/>
                </mxCell>
                <mxCell id="mkv4c0RFd3tloVC9sXqu-9" style="edgeStyle=orthogonalEdgeStyle;rounded=0;orthogonalLoop=1;jettySize=auto;html=1;entryX=0;entryY=0.5;entryDx=0;entryDy=0;labelBackgroundColor=none;fontColor=#000000;strokeColor=#000000;verticalAlign=middle;" parent="1" source="32o-j4kvodKn1qL3LOLl-39" target="mkv4c0RFd3tloVC9sXqu-4" edge="1">
                    <mxGeometry relative="1" as="geometry"/>
                </mxCell>
                <mxCell id="32o-j4kvodKn1qL3LOLl-39" value="&lt;font style=&quot;font-size: 15px&quot;&gt;按照策略执行无法处理的任务&lt;/font&gt;" style="rounded=1;whiteSpace=wrap;html=1;strokeColor=#000000;fillColor=#d5e8d4;fontSize=10;fontStyle=0;labelBackgroundColor=none;fontColor=#000000;verticalAlign=middle;" parent="1" vertex="1">
                    <mxGeometry x="700" y="265" width="120" height="60" as="geometry"/>
                </mxCell>
                <mxCell id="mkv4c0RFd3tloVC9sXqu-1" value="&lt;span style=&quot;font-family: &amp;quot;helvetica neue&amp;quot;, helvetica, &amp;quot;segoe ui&amp;quot;, arial, freesans, sans-serif; font-size: 12px; text-align: left;&quot;&gt;AbortPolicy&lt;/span&gt;&lt;span style=&quot;font-family: &amp;quot;helvetica neue&amp;quot;, helvetica, &amp;quot;segoe ui&amp;quot;, arial, freesans, sans-serif; font-size: 12px; text-align: left;&quot;&gt;（默认策略）：直接抛出异常&lt;/span&gt;" style="rounded=1;whiteSpace=wrap;html=1;fillColor=#d5e8d4;strokeColor=#000000;labelBackgroundColor=none;fontSize=12;fontColor=#000000;verticalAlign=middle;" parent="1" vertex="1">
                    <mxGeometry x="860" y="132.5" width="120" height="60" as="geometry"/>
                </mxCell>
                <mxCell id="mkv4c0RFd3tloVC9sXqu-2" value="&lt;span style=&quot;font-family: &amp;quot;helvetica neue&amp;quot;, helvetica, &amp;quot;segoe ui&amp;quot;, arial, freesans, sans-serif; font-size: 10px; text-align: left;&quot;&gt;CallerRunsPolicy：调用所在的主线程运行任务&lt;/span&gt;" style="rounded=1;whiteSpace=wrap;html=1;fillColor=#d5e8d4;strokeColor=#000000;labelBackgroundColor=none;fontSize=10;fontColor=#000000;verticalAlign=middle;" parent="1" vertex="1">
                    <mxGeometry x="860" y="222.5" width="120" height="60" as="geometry"/>
                </mxCell>
                <mxCell id="mkv4c0RFd3tloVC9sXqu-3" value="&lt;span style=&quot;font-family: &amp;quot;helvetica neue&amp;quot;, helvetica, &amp;quot;segoe ui&amp;quot;, arial, freesans, sans-serif; font-size: 11px; text-align: left;&quot;&gt;DiscardOldestPolicy：丢弃队列里最近的一个任务，并执行当前任务&lt;/span&gt;" style="rounded=1;whiteSpace=wrap;html=1;fillColor=#d5e8d4;strokeColor=#000000;labelBackgroundColor=none;fontSize=11;horizontal=1;fontColor=#000000;verticalAlign=middle;" parent="1" vertex="1">
                    <mxGeometry x="860" y="312.5" width="120" height="60" as="geometry"/>
                </mxCell>
                <mxCell id="mkv4c0RFd3tloVC9sXqu-4" value="&lt;span style=&quot;font-family: &amp;quot;helvetica neue&amp;quot;, helvetica, &amp;quot;segoe ui&amp;quot;, arial, freesans, sans-serif; font-size: 11px; text-align: left;&quot;&gt;DiscardPolicy：不处理，丢弃掉&lt;/span&gt;" style="rounded=1;whiteSpace=wrap;html=1;fillColor=#d5e8d4;strokeColor=#000000;labelBackgroundColor=none;fontSize=11;fontColor=#000000;verticalAlign=middle;" parent="1" vertex="1">
                    <mxGeometry x="860" y="397.5" width="120" height="60" as="geometry"/>
                </mxCell>
            </root>
        </mxGraphModel>
    </diagram>
</mxfile>